# Blender 4.2.1 LTS
# www.blender.org
mtllib insideportal.mtl
o Cylinder
v -0.028430 -0.000000 -0.846047
v -0.028430 -0.165056 -0.829791
v -0.028430 -0.323768 -0.781646
v -0.028430 -0.470039 -0.703462
v -0.028430 -0.598246 -0.598246
v -0.028430 -0.703462 -0.470039
v -0.028430 -0.781646 -0.323768
v -0.028430 -0.829791 -0.165056
v -0.028430 -0.846047 0.000000
v -0.028430 -0.829791 0.165056
v -0.028430 -0.781646 0.323768
v -0.028430 -0.703462 0.470039
v -0.028430 -0.598246 0.598246
v -0.028430 -0.470039 0.703462
v -0.028430 -0.323768 0.781646
v -0.028430 -0.165056 0.829791
v -0.028430 -0.000000 0.846047
v -0.028430 0.165056 0.829791
v -0.028430 0.323768 0.781646
v -0.028430 0.470039 0.703462
v -0.028430 0.598246 0.598246
v -0.028430 0.703462 0.470039
v -0.028430 0.781646 0.323768
v -0.028430 0.829791 0.165056
v -0.028430 0.846047 0.000000
v -0.028430 0.829791 -0.165056
v -0.028430 0.781646 -0.323768
v -0.028430 0.703462 -0.470039
v -0.028430 0.598246 -0.598246
v -0.028430 0.470039 -0.703462
v -0.028430 0.323768 -0.781646
v -0.028430 0.165056 -0.829791
v -0.063507 -0.165056 -0.829791
v -0.063507 -0.000000 -0.846047
v -0.063507 -0.323768 -0.781646
v -0.063507 -0.470039 -0.703462
v -0.063507 -0.598246 -0.598246
v -0.063507 -0.703462 -0.470039
v -0.063507 -0.781646 -0.323768
v -0.063507 -0.829791 -0.165056
v -0.063507 -0.846047 0.000000
v -0.063507 -0.829791 0.165056
v -0.063507 -0.781646 0.323768
v -0.063507 -0.703462 0.470039
v -0.063507 -0.598246 0.598246
v -0.063507 -0.470039 0.703462
v -0.063507 -0.323768 0.781646
v -0.063507 -0.165056 0.829791
v -0.063507 -0.000000 0.846047
v -0.063507 0.165056 0.829791
v -0.063507 0.323768 0.781646
v -0.063507 0.470039 0.703462
v -0.063507 0.598246 0.598246
v -0.063507 0.703462 0.470039
v -0.063506 0.781646 0.323768
v -0.063506 0.829791 0.165056
v -0.063506 0.846047 0.000000
v -0.063506 0.829791 -0.165056
v -0.063506 0.781646 -0.323768
v -0.063507 0.703462 -0.470039
v -0.063507 0.598246 -0.598246
v -0.063507 0.470039 -0.703462
v -0.063507 0.323768 -0.781646
v -0.063507 0.165056 -0.829791
vn 1.0000 -0.0000 -0.0000
vn -1.0000 -0.0000 -0.0000
vn -0.0000 -0.9952 -0.0980
vn -0.0000 0.8819 0.4714
vn -0.0000 -0.9952 0.0980
vn -0.0000 0.9569 0.2903
vn -0.0000 -0.9569 0.2903
vn -0.0000 0.9952 0.0980
vn -0.0000 -0.8819 0.4714
vn -0.0000 0.9952 -0.0980
vn -0.0000 -0.7730 0.6344
vn -0.0000 0.9569 -0.2903
vn -0.0000 -0.6344 0.7730
vn -0.0000 0.8819 -0.4714
vn -0.0000 -0.4714 0.8819
vn -0.0000 -0.0980 -0.9952
vn -0.0000 0.7730 -0.6344
vn -0.0000 -0.2903 0.9569
vn -0.0000 -0.2903 -0.9569
vn -0.0000 0.6344 -0.7730
vn -0.0000 -0.0980 0.9952
vn -0.0000 -0.4714 -0.8819
vn -0.0000 0.4714 -0.8819
vn -0.0000 0.0980 0.9952
vn -0.0000 -0.6344 -0.7730
vn -0.0000 0.2903 -0.9569
vn -0.0000 0.2903 0.9569
vn -0.0000 -0.7730 -0.6344
vn -0.0000 0.0980 -0.9952
vn -0.0000 0.4714 0.8819
vn -0.0000 -0.8819 -0.4714
vn -0.0000 0.6344 0.7730
vn -0.0000 -0.9569 -0.2903
vn -0.0000 0.7730 0.6344
vt 0.510942 -0.007236
vt 0.510942 0.945997
vt 0.246395 0.469380
vt 0.409704 0.029044
vt 0.612180 0.909717
vt 0.755352 0.286987
vt 0.770406 0.562364
vt 0.775489 0.469380
vt 0.290979 0.204586
vt 0.266532 0.286987
vt 0.770406 0.376397
vt 0.251478 0.376397
vt 0.730905 0.204586
vt 0.251478 0.562364
vt 0.698005 0.132361
vt 0.266532 0.651774
vt 0.657917 0.073088
vt 0.290979 0.734174
vt 0.612180 0.029044
vt 0.562553 0.936839
vt 0.323879 0.806399
vt 0.562553 0.001922
vt 0.363968 0.865673
vt 0.657917 0.865673
vt 0.409704 0.909717
vt 0.459332 0.001922
vt 0.698005 0.806399
vt 0.459332 0.936839
vt 0.730905 0.734174
vt 0.363968 0.073088
vt 0.755352 0.651774
vt 0.323879 0.132361
s 0
usemtl InsidePortalMat
f 17/1/1 1/2/1 25/3/1
f 51/4/2 35/5/2 43/6/2
f 8/7/3 9/8/3 41/8/3
f 22/9/4 23/10/4 55/10/4
f 9/8/5 10/11/5 42/11/5
f 23/10/6 24/12/6 56/12/6
f 10/11/7 11/6/7 43/6/7
f 24/12/8 25/3/8 57/3/8
f 11/6/9 12/13/9 44/13/9
f 25/3/10 26/14/10 58/14/10
f 12/13/11 13/15/11 45/15/11
f 26/14/12 27/16/12 59/16/12
f 13/15/13 14/17/13 46/17/13
f 27/16/14 28/18/14 60/18/14
f 14/17/15 15/19/15 47/19/15
f 1/2/16 2/20/16 33/20/16
f 28/18/17 29/21/17 61/21/17
f 15/19/18 16/22/18 48/22/18
f 2/20/19 3/5/19 35/5/19
f 29/21/20 30/23/20 62/23/20
f 16/22/21 17/1/21 49/1/21
f 3/5/22 4/24/22 36/24/22
f 30/23/23 31/25/23 63/25/23
f 17/1/24 18/26/24 50/26/24
f 4/24/25 5/27/25 37/27/25
f 31/25/26 32/28/26 64/28/26
f 18/26/27 19/4/27 51/4/27
f 5/27/28 6/29/28 38/29/28
f 32/28/29 1/2/29 34/2/29
f 19/4/30 20/30/30 52/30/30
f 6/29/31 7/31/31 39/31/31
f 20/30/32 21/32/32 53/32/32
f 7/31/33 8/7/33 40/7/33
f 21/32/34 22/9/34 54/9/34
f 1/2/1 5/27/1 2/20/1
f 2/20/1 5/27/1 3/5/1
f 3/5/1 5/27/1 4/24/1
f 5/27/1 7/31/1 6/29/1
f 7/31/1 5/27/1 8/7/1
f 8/7/1 5/27/1 9/8/1
f 9/8/1 13/15/1 10/11/1
f 10/11/1 13/15/1 11/6/1
f 11/6/1 13/15/1 12/13/1
f 13/15/1 15/19/1 14/17/1
f 15/19/1 13/15/1 16/22/1
f 16/22/1 13/15/1 17/1/1
f 17/1/1 21/32/1 18/26/1
f 18/26/1 21/32/1 19/4/1
f 19/4/1 21/32/1 20/30/1
f 21/32/1 23/10/1 22/9/1
f 23/10/1 21/32/1 24/12/1
f 24/12/1 21/32/1 25/3/1
f 25/3/1 29/21/1 26/14/1
f 26/14/1 29/21/1 27/16/1
f 27/16/1 29/21/1 28/18/1
f 29/21/1 31/25/1 30/23/1
f 31/25/1 29/21/1 32/28/1
f 32/28/1 29/21/1 1/2/1
f 1/2/1 9/8/1 5/27/1
f 9/8/1 17/1/1 13/15/1
f 17/1/1 25/3/1 21/32/1
f 25/3/1 1/2/1 29/21/1
f 1/2/1 17/1/1 9/8/1
f 35/5/2 34/2/2 33/20/2
f 34/2/2 35/5/2 64/28/2
f 64/28/2 35/5/2 63/25/2
f 63/25/2 61/21/2 62/23/2
f 61/21/2 59/16/2 60/18/2
f 59/16/2 57/3/2 58/14/2
f 57/3/2 59/16/2 56/12/2
f 56/12/2 59/16/2 55/10/2
f 55/10/2 53/32/2 54/9/2
f 53/32/2 51/4/2 52/30/2
f 51/4/2 47/19/2 50/26/2
f 50/26/2 47/19/2 49/1/2
f 49/1/2 47/19/2 48/22/2
f 47/19/2 45/15/2 46/17/2
f 45/15/2 43/6/2 44/13/2
f 43/6/2 39/31/2 42/11/2
f 42/11/2 39/31/2 41/8/2
f 41/8/2 39/31/2 40/7/2
f 39/31/2 37/27/2 38/29/2
f 37/27/2 35/5/2 36/24/2
f 63/25/2 35/5/2 61/21/2
f 61/21/2 35/5/2 59/16/2
f 55/10/2 59/16/2 53/32/2
f 53/32/2 59/16/2 51/4/2
f 47/19/2 51/4/2 45/15/2
f 45/15/2 51/4/2 43/6/2
f 39/31/2 43/6/2 37/27/2
f 37/27/2 43/6/2 35/5/2
f 35/5/2 51/4/2 59/16/2
f 8/7/3 41/8/3 40/7/3
f 22/9/4 55/10/4 54/9/4
f 9/8/5 42/11/5 41/8/5
f 23/10/6 56/12/6 55/10/6
f 10/11/7 43/6/7 42/11/7
f 24/12/8 57/3/8 56/12/8
f 11/6/9 44/13/9 43/6/9
f 25/3/10 58/14/10 57/3/10
f 12/13/11 45/15/11 44/13/11
f 26/14/12 59/16/12 58/14/12
f 13/15/13 46/17/13 45/15/13
f 27/16/14 60/18/14 59/16/14
f 14/17/15 47/19/15 46/17/15
f 1/2/16 33/20/16 34/2/16
f 28/18/17 61/21/17 60/18/17
f 15/19/18 48/22/18 47/19/18
f 2/20/19 35/5/19 33/20/19
f 29/21/20 62/23/20 61/21/20
f 16/22/21 49/1/21 48/22/21
f 3/5/22 36/24/22 35/5/22
f 30/23/23 63/25/23 62/23/23
f 17/1/24 50/26/24 49/1/24
f 4/24/25 37/27/25 36/24/25
f 31/25/26 64/28/26 63/25/26
f 18/26/27 51/4/27 50/26/27
f 5/27/28 38/29/28 37/27/28
f 32/28/29 34/2/29 64/28/29
f 19/4/30 52/30/30 51/4/30
f 6/29/31 39/31/31 38/29/31
f 20/30/32 53/32/32 52/30/32
f 7/31/33 40/7/33 39/31/33
f 21/32/34 54/9/34 53/32/34
